<?xml version="1.0" standalone="no"?>
<!DOCTYPE svg PUBLIC "-//W3C//DTD SVG 20010904//EN"
 "http://www.w3.org/TR/2001/REC-SVG-20010904/DTD/svg10.dtd">
<svg version="1.0" xmlns="http://www.w3.org/2000/svg"
 width="1273.000000pt" height="1280.000000pt" viewBox="0 0 1273.000000 1280.000000"
 preserveAspectRatio="xMidYMid meet">
<g transform="translate(0.000000,1280.000000) scale(0.100000,-0.100000)"
fill="#000000" stroke="none">
<path d="M6738 12795 c-3 -3 -47 -12 -99 -21 -52 -8 -186 -32 -299 -54 -241
-46 -312 -55 -565 -72 -281 -19 -328 -17 -400 16 -213 99 -443 84 -795 -52
l-105 -40 -305 -5 c-377 -7 -515 -25 -735 -97 -119 -39 -243 -69 -514 -125
-303 -63 -308 -65 -505 -185 -139 -84 -212 -121 -301 -150 -38 -13 -137 -58
-220 -100 -350 -179 -633 -383 -930 -670 -77 -75 -204 -191 -283 -259 -275
-237 -376 -356 -457 -541 -92 -209 -110 -292 -110 -495 1 -155 2 -163 34 -258
l34 -98 -75 -157 c-75 -155 -108 -241 -108 -281 0 -11 10 -46 21 -78 18 -47
41 -76 130 -165 78 -77 111 -118 118 -144 11 -41 11 -42 -62 -219 -79 -191
-106 -395 -72 -552 38 -180 102 -299 196 -369 107 -78 234 -114 408 -114 93 0
94 0 126 -34 19 -20 43 -65 59 -112 86 -241 184 -348 371 -407 54 -17 300 -67
430 -88 76 -12 83 -15 135 -65 150 -141 330 -206 575 -206 80 0 163 6 216 16
80 15 92 16 165 0 43 -8 83 -19 89 -22 5 -3 58 -9 117 -13 106 -6 106 -6 205
-62 118 -67 197 -94 322 -109 176 -22 386 22 524 109 l41 26 69 -18 c53 -14
90 -17 160 -12 122 8 222 44 352 126 45 29 47 29 83 14 47 -20 145 -21 250 -3
116 19 114 22 124 -177 30 -634 28 -939 -9 -1153 -9 -52 -19 -146 -22 -207 -8
-143 -17 -155 -124 -163 -40 -4 -125 -22 -190 -40 -138 -40 -119 -43 -383 55
-226 84 -323 111 -442 126 -85 11 -109 10 -192 -5 -52 -10 -147 -22 -212 -26
-178 -12 -259 -42 -326 -122 -29 -34 -65 -45 -172 -52 -76 -5 -95 -11 -186
-56 -69 -34 -113 -50 -140 -50 -58 0 -161 -27 -215 -56 -64 -35 -143 -116
-174 -178 -43 -87 -30 -193 33 -259 38 -40 88 -64 198 -93 52 -14 124 -36 159
-49 119 -45 214 -43 376 11 l75 24 47 -20 c95 -42 275 -44 426 -5 l55 14 56
-35 c99 -61 153 -77 280 -82 129 -5 201 8 305 56 l60 28 50 -20 c41 -16 77
-20 200 -22 134 -1 156 -4 208 -26 97 -41 107 -56 87 -128 -5 -19 -95 -469
-200 -1000 -104 -531 -195 -989 -201 -1018 -9 -47 -15 -55 -45 -68 -18 -8 -51
-14 -73 -14 -35 0 -47 7 -103 60 -124 119 -315 229 -459 264 -66 16 -235 20
-294 7 -23 -5 -44 0 -88 22 -70 35 -180 46 -272 27 -120 -25 -109 -27 -144 29
-101 158 -319 286 -554 327 -108 19 -278 14 -372 -11 -135 -36 -285 -136 -365
-243 -36 -48 -92 -154 -113 -213 -4 -12 -24 -18 -74 -22 -175 -17 -330 -112
-402 -246 -31 -59 -32 -60 -89 -71 -209 -41 -390 -149 -482 -288 -126 -191
-70 -430 128 -544 86 -49 93 -110 27 -216 -94 -153 -25 -337 158 -423 94 -44
159 -51 312 -38 142 13 142 13 223 -46 47 -34 129 -63 215 -76 95 -15 325 -5
446 19 l93 19 67 -27 c97 -41 194 -54 343 -46 99 5 142 3 195 -10 87 -21 227
-14 338 17 44 12 87 21 95 20 244 -16 314 -12 441 30 63 21 64 21 139 3 95
-23 216 -23 388 1 114 16 142 17 190 6 242 -53 388 -60 809 -36 l318 17 185
-31 c339 -56 429 -65 680 -65 264 -1 361 12 510 65 128 46 133 46 209 8 63
-33 69 -34 176 -33 184 2 399 2 625 2 190 -1 224 2 295 21 107 29 188 68 257
124 32 26 61 47 64 47 4 0 34 -13 68 -30 38 -18 96 -35 154 -44 66 -11 107
-24 140 -44 125 -75 216 -97 402 -96 149 0 207 10 329 55 51 19 57 19 138 4
46 -9 132 -31 191 -49 59 -19 157 -41 217 -50 61 -10 134 -21 164 -27 69 -12
150 -12 204 0 23 5 73 14 110 21 89 14 161 42 235 89 49 32 66 51 93 102 36
67 44 73 145 107 105 34 202 98 300 196 144 145 202 284 190 451 -15 209 -104
376 -245 458 l-56 33 -6 76 c-15 176 -112 352 -265 480 -110 92 -324 178 -441
178 -34 0 -44 7 -96 65 -89 99 -178 143 -334 165 -62 8 -103 8 -167 -1 l-85
-12 -56 38 c-148 98 -365 121 -596 61 -171 -43 -307 -116 -425 -226 -68 -64
-114 -87 -147 -74 -24 9 -136 -14 -191 -39 -30 -14 -72 -42 -95 -63 -33 -30
-54 -39 -96 -45 -29 -4 -90 -23 -134 -44 l-81 -36 -68 28 c-65 27 -72 28 -251
28 -110 1 -186 5 -187 10 -7 25 -89 881 -108 1135 -21 261 -38 646 -34 744 l3
78 80 27 c49 16 111 47 160 80 l80 54 53 -11 c29 -6 99 -31 155 -55 141 -61
193 -72 327 -71 105 0 126 4 240 39 69 21 141 39 160 39 19 0 114 -8 210 -18
360 -39 591 7 726 142 87 86 97 215 26 320 -36 54 -83 88 -150 109 -47 15 -56
22 -74 60 -11 23 -38 59 -60 79 -38 34 -149 94 -174 94 -6 0 -32 24 -57 53
-25 29 -67 65 -95 80 -56 30 -187 67 -239 67 -19 0 -66 14 -104 31 -122 53
-217 72 -338 66 -132 -5 -190 -24 -286 -90 -42 -28 -99 -67 -127 -84 l-52 -33
-151 0 c-141 0 -153 2 -197 25 -26 14 -53 25 -61 25 -21 0 -67 39 -77 66 -6
14 -5 54 1 101 6 43 14 380 17 755 4 372 10 680 14 684 4 4 40 -8 80 -26 189
-87 410 -103 559 -39 47 21 49 21 96 3 72 -28 188 -24 281 9 l74 26 194 -44
c478 -108 736 -108 969 -1 63 28 162 118 203 183 15 23 33 43 40 43 7 0 44
-16 82 -35 150 -75 364 -113 500 -87 155 29 272 114 331 241 17 36 36 77 43
91 9 19 21 26 46 28 317 23 616 132 767 280 136 133 185 304 148 517 -23 128
-23 146 -5 155 8 5 67 33 130 63 187 90 298 186 363 317 30 60 32 72 32 165
-1 117 -15 154 -116 310 -60 93 -61 97 -51 133 6 20 14 55 17 77 9 59 28 81
84 100 105 35 225 134 286 239 30 50 74 193 75 238 0 71 -58 232 -126 348
-112 192 -345 424 -612 611 -54 38 -70 55 -104 122 -195 374 -610 761 -1060
989 -75 38 -108 61 -140 100 -214 252 -402 368 -713 441 -81 19 -121 21 -410
22 l-320 0 -80 39 c-102 49 -279 118 -375 144 -148 42 -243 52 -470 52 -438 0
-797 59 -1131 186 -222 84 -426 134 -451 109z"/>
</g>
</svg>
